<svg width="203" height="281" viewBox="0 0 203 281" fill="none" xmlns="http://www.w3.org/2000/svg">
<g clip-path="url(#clip0)">
<path d="M186.136 39.1189H17.1802V206.77H186.136V39.1189Z" fill="#9DC3EA"/>
<path d="M99.919 46.3943H25.296V121.046H99.919V46.3943Z" fill="#C4DCF2"/>
<path d="M99.919 125.58H25.296V200.232H99.919V125.58Z" fill="#C4DCF2"/>
<path d="M179.18 46.3943H104.557V121.046H179.18V46.3943Z" fill="#C4DCF2"/>
<path d="M179.18 125.58H104.557V200.232H179.18V125.58Z" fill="#C4DCF2"/>
<path d="M58.9185 87.0945L51.0135 86.8836C49.8541 87.1999 48.5893 86.4618 48.2731 85.302L43.3193 66.3227C43.0031 65.1628 43.7409 63.8975 44.9003 63.5812L52.8053 63.6866C54.1755 63.7921 55.2295 64.1084 55.5457 65.2682L60.4995 84.2476C60.7103 85.5129 60.0779 86.7782 58.9185 87.0945Z" fill="#2F1B3F"/>
<path d="M108.773 144.138L87.798 250.528" stroke="#E5E5E5" stroke-miterlimit="10"/>
<path d="M130.274 144.138L151.249 250.528" stroke="#E5E5E5" stroke-miterlimit="10"/>
<path d="M120.367 144.138V258.752" stroke="#E5E5E5" stroke-miterlimit="10"/>
<path d="M142.29 147.512H99.919C98.0218 147.512 96.5462 146.036 96.5462 144.138C96.5462 142.24 98.0218 140.764 99.919 140.764H142.29C144.187 140.764 145.663 142.24 145.663 144.138C145.663 146.036 144.187 147.512 142.29 147.512Z" fill="#2F1B3F"/>
<path d="M144.082 274.146C144.082 274.146 146.084 280.367 136.914 280.895C128.482 281.422 122.158 281.527 123.318 261.704L144.082 274.146Z" fill="white"/>
<path d="M132.171 230.178V253.585L123.634 253.902L121.948 231.337L132.171 230.178Z" fill="#FFBBB6"/>
<path d="M132.171 253.585C132.171 253.585 143.028 269.402 144.082 274.146C145.03 278.891 128.166 281.738 125.215 274.146C122.264 266.555 123.634 253.902 123.634 253.902L132.171 253.585Z" fill="#2F1B3F"/>
<path d="M135.228 264.024L128.588 264.551" stroke="white" stroke-width="0.7991" stroke-miterlimit="10" stroke-linecap="round" stroke-linejoin="round"/>
<path d="M134.279 261.704L128.061 262.232" stroke="white" stroke-width="0.7991" stroke-miterlimit="10" stroke-linecap="round" stroke-linejoin="round"/>
<path d="M132.909 259.385L127.534 259.806" stroke="white" stroke-width="0.7991" stroke-miterlimit="10" stroke-linecap="round" stroke-linejoin="round"/>
<path d="M116.151 134.859L118.364 246.099L134.912 245.256C134.912 245.256 141.236 168.6 141.868 138.128L116.151 134.859Z" fill="#2D6087"/>
<path d="M87.3764 179.355L83.7928 158.9L93.4896 154.998L96.4408 176.825L88.0088 180.199L87.3764 179.355Z" fill="#FFBBB6"/>
<path d="M96.2301 172.185C96.2301 172.185 90.6439 178.09 85.2685 174.294L69.5639 190.637L101.289 179.144L96.2301 172.185Z" fill="#2F1B3F"/>
<path d="M70.5125 193.379L102.343 181.886L101.289 179.144L69.5639 190.637L70.5125 193.379Z" fill="white"/>
<path d="M86.9548 178.512C86.8494 178.512 86.744 178.512 86.6386 178.406C84.8468 177.246 83.3712 176.825 83.3712 176.825C83.055 176.719 82.9496 176.508 82.9496 176.192C83.055 175.876 83.3712 175.77 83.6874 175.77C83.7928 175.77 85.3738 176.192 87.3764 177.457C87.5872 177.668 87.6926 177.984 87.4818 178.195C87.271 178.406 87.1656 178.512 86.9548 178.512Z" fill="white"/>
<path d="M84.7415 180.726C84.6361 180.726 84.5307 180.726 84.4253 180.62C82.6335 179.461 81.1579 179.039 81.1579 179.039C80.8417 178.933 80.7363 178.723 80.7363 178.406C80.8417 178.09 81.1579 177.984 81.4741 177.984C81.5795 177.984 83.1605 178.406 85.1631 179.671C85.3739 179.882 85.4793 180.199 85.2685 180.41C85.1631 180.62 84.9523 180.726 84.7415 180.726Z" fill="white"/>
<path d="M82.6335 182.94C82.5281 182.94 82.4227 182.94 82.3173 182.835C80.5255 181.675 79.0499 181.253 79.0499 181.253C78.7337 181.148 78.6283 180.937 78.6283 180.62C78.7337 180.304 79.0499 180.199 79.3661 180.199C79.4715 180.199 81.0525 180.62 83.0551 181.886C83.2659 182.097 83.3713 182.413 83.1605 182.624C83.0551 182.835 82.8443 182.94 82.6335 182.94Z" fill="white"/>
<path d="M113.305 115.353L76.4149 100.38L67.2451 109.448L78.7337 168.6L97.2841 165.964L92.4357 130.431L100.973 135.281L113.305 115.353Z" fill="#2D6087"/>
<path d="M109.721 109.132L101.078 135.281L141.974 138.233C141.657 123.577 132.804 109.553 132.804 109.553L132.593 105.968L109.721 109.132Z" fill="#2D6087"/>
<path d="M100.973 135.281C100.973 135.281 110.775 145.509 123.318 143.505L124.688 127.795L100.973 135.281Z" fill="#2D6087"/>
<path d="M116.361 143.4L115.94 132.329L104.767 138.339C104.662 138.339 110.143 142.662 116.361 143.4Z" fill="#1B526D"/>
<path d="M92.4357 130.431L91.0655 120.625" stroke="#0D4779" stroke-width="0.5274" stroke-miterlimit="10"/>
<path d="M112.251 114.825L108.351 113.244" stroke="#0D4779" stroke-width="0.5274" stroke-miterlimit="10"/>
<path d="M113.305 54.5133C113.305 54.5133 138.812 58.9418 117.626 82.2442L95.5976 86.251C95.5976 86.251 83.1605 76.9722 89.6952 67.0608C92.9626 62.2105 94.3328 57.1493 93.4896 51.2446C92.8572 46.7107 108.773 47.976 108.773 47.976L113.305 54.5133Z" fill="#E64646"/>
<path d="M113.305 32.8979C113.305 32.8979 95.3868 35.1122 92.9626 42.1767C90.5384 49.2413 95.5976 59.0473 104.451 60.7343C112.883 62.3159 105.821 37.221 105.821 37.221L113.305 32.8979Z" fill="#E64646"/>
<path d="M105.716 34.3741C105.716 34.3741 118.469 26.8878 121.631 36.0612C123.739 42.2822 113.937 46.8161 113.937 46.8161L105.716 34.3741Z" fill="#E64646"/>
<path d="M118.048 52.6154C120.202 52.6154 121.948 50.8687 121.948 48.714C121.948 46.5594 120.202 44.8127 118.048 44.8127C115.894 44.8127 114.148 46.5594 114.148 48.714C114.148 50.8687 115.894 52.6154 118.048 52.6154Z" fill="#D68C64"/>
<path d="M114.886 60.1017L116.151 70.224C116.467 73.1763 114.57 73.2817 111.618 73.4926C109.089 73.7035 106.875 75.3906 106.243 72.9654L105.294 56.9384L114.886 60.1017Z" fill="#F0B28D"/>
<path d="M115.729 67.0607L104.346 59.2581L114.886 59.1527L115.729 67.0607Z" fill="#D68C64"/>
<path d="M112.672 61.8942C117.626 61.0506 120.999 56.5167 120.472 52.4045L119.102 42.8094C118.364 37.7482 113.832 34.1632 108.773 34.585C103.503 35.1122 98.865 39.857 99.392 45.1291L100.551 52.8263C101.395 58.7309 106.665 62.4214 112.672 61.8942Z" fill="#F0B28D"/>
<path d="M114.675 49.8739L115.307 52.1936L114.148 52.5099" stroke="#4D2D3C" stroke-width="0.2862" stroke-miterlimit="10" stroke-linecap="round" stroke-linejoin="round"/>
<path d="M108.562 47.027C108.562 47.027 110.564 46.4998 110.775 47.3433C110.775 47.3433 110.881 47.8705 109.089 48.2923C107.297 48.7141 106.77 48.7141 106.559 48.1869C106.243 47.7651 107.508 47.2379 108.562 47.027Z" fill="#4D2D3C"/>
<path d="M116.783 43.8638C116.783 43.8638 114.991 43.9692 114.991 44.8127C114.991 44.8127 114.991 45.34 116.572 45.2345C118.048 45.1291 118.575 44.8127 118.575 44.391C118.68 43.7583 117.626 43.7583 116.783 43.8638Z" fill="#4D2D3C"/>
<path d="M117.205 49.4521C117.67 49.4521 118.048 49.0745 118.048 48.6086C118.048 48.1428 117.67 47.7651 117.205 47.7651C116.739 47.7651 116.361 48.1428 116.361 48.6086C116.361 49.0745 116.739 49.4521 117.205 49.4521Z" fill="#4D2D3C"/>
<path d="M109.827 50.4011C110.292 50.4011 110.67 50.0234 110.67 49.5576C110.67 49.0917 110.292 48.7141 109.827 48.7141C109.361 48.7141 108.983 49.0917 108.983 49.5576C108.983 50.0234 109.361 50.4011 109.827 50.4011Z" fill="#4D2D3C"/>
<path d="M110.143 54.197C110.143 54.197 110.881 55.4623 113.726 54.9351" stroke="#4D2D3C" stroke-width="0.2862" stroke-miterlimit="10" stroke-linecap="round" stroke-linejoin="round"/>
<path d="M115.413 36.5884C115.413 36.5884 118.048 44.8128 100.446 47.027C100.024 47.027 92.014 38.4863 105.716 34.3741C105.716 34.3741 110.143 32.1599 115.413 36.5884Z" fill="#E64646"/>
<path d="M105.716 43.1257C105.927 49.1358 102.343 51.3501 102.343 51.3501L96.1246 46.1835C96.0192 46.1835 105.611 39.9625 105.716 43.1257Z" fill="#E64646"/>
<path d="M99.4974 55.9895C101.651 55.9895 103.397 54.2428 103.397 52.0882C103.397 49.9335 101.651 48.1869 99.4974 48.1869C97.3436 48.1869 95.5976 49.9335 95.5976 52.0882C95.5976 54.2428 97.3436 55.9895 99.4974 55.9895Z" fill="#F0B28D"/>
<path d="M100.973 53.1426C100.973 53.1426 100.657 50.2957 98.0218 51.0338" stroke="#4D2D3C" stroke-width="0.2862" stroke-miterlimit="10" stroke-linecap="round" stroke-linejoin="round"/>
<path d="M123.318 64.3193C123.318 64.3193 130.38 58.6255 134.174 61.5778C137.968 64.5302 143.871 81.0844 143.871 81.0844L151.038 98.693C152.303 101.856 150.511 105.547 147.138 106.285C144.398 106.917 141.552 105.441 140.603 102.805L132.488 80.8735L126.585 80.9789L123.318 64.3193Z" fill="#F0B28D"/>
<path d="M140.814 100.485L127.323 128.638L133.225 130.431L151.038 103.332L140.814 100.485Z" fill="#F0B28D"/>
<path d="M133.015 128.216C133.015 128.216 136.493 130.852 134.174 138.339C134.174 138.339 135.966 142.135 139.128 146.458C139.128 146.458 138.39 149.726 133.542 147.828C133.542 147.828 122.475 142.767 127.323 128.638L133.015 128.216Z" fill="#F0B28D"/>
<path d="M53.9647 87.5162C54.4917 88.0434 77.0473 99.0093 77.0473 99.0093L71.6719 108.604L51.7513 93.7372L53.9647 87.5162Z" fill="#F0B28D"/>
<path d="M54.9133 91.8393C54.9133 91.8393 55.6511 89.2033 55.8619 86.2509C56.0727 83.6149 55.8619 81.5061 55.1241 78.9755C54.4917 76.9722 53.1215 75.1797 51.6459 74.4416C49.8541 73.7035 48.6947 73.1763 47.1137 73.2817C45.7435 73.3872 44.3733 73.8089 44.5841 76.3395C44.6895 78.132 45.8489 83.7204 48.0623 88.887C48.8001 90.6795 49.5379 92.3665 51.2243 93.3155L52.4891 93.9481L54.9133 91.8393Z" fill="#F0B28D"/>
<path d="M100.235 83.1932V72.0164C91.6978 72.9654 87.4818 80.6626 86.3224 83.1932L71.2503 100.485C69.2477 102.7 69.2477 105.968 71.1449 108.183C73.3582 110.713 77.1526 110.186 79.4714 107.761L101.605 83.5095L100.235 83.1932Z" fill="#F0B28D"/>
<path d="M118.469 67.6934L123.318 64.3193C123.318 64.3193 123.845 72.3328 132.488 80.8735V105.863L109.616 109.026L108.035 100.38C108.035 100.38 98.9704 94.8971 98.5488 85.1966L94.5436 73.1763L100.13 71.911C100.235 72.0165 114.57 76.6558 118.469 67.6934Z" fill="#FFFDFF"/>
<path d="M100.235 72.0165L118.469 67.7988C118.469 67.7988 125.004 81.6116 114.464 85.7237C104.03 89.7305 100.235 72.0165 100.235 72.0165Z" fill="#F0B28D"/>
<path d="M33.7279 99.0093L7.7996 105.125C6.1132 105.547 4.42681 104.492 4.00521 102.805L0.105416 86.0401C-0.316183 84.353 0.737815 82.666 2.42421 82.2442L28.2472 76.1286C29.9336 75.7069 31.62 76.7613 32.0416 78.4483L35.9413 95.108C36.4683 96.9005 35.4143 98.5875 33.7279 99.0093Z" fill="#E64646"/>
<path d="M19.8152 83.6149C18.445 83.9313 17.4964 84.8802 17.0748 86.1455C16.2316 85.1965 14.8614 84.7748 13.4912 85.0911C11.4886 85.6183 10.2238 87.6217 10.7508 89.6251C11.4886 92.7883 17.6018 95.8461 19.6044 96.795C20.8692 95.0025 24.9798 89.5196 24.3474 86.3564C23.8204 84.4585 21.8178 83.1932 19.8152 83.6149Z" fill="white"/>
<path d="M166.11 53.1426L147.981 48.3977C146.295 47.976 145.241 46.1835 145.768 44.4964L148.614 33.3197C149.035 31.6327 150.827 30.5782 152.513 31.1054L170.642 35.8503C172.329 36.272 173.383 38.0645 172.856 39.7516L169.904 50.9283C169.483 52.6154 167.796 53.5643 166.11 53.1426Z" fill="#E64646"/>
<path d="M162.948 38.0645C161.894 37.8537 160.945 38.0645 160.208 38.8026C159.891 37.8537 159.154 37.1156 158.205 36.7993C156.729 36.3775 155.148 37.3265 154.727 38.8026C154.094 41.2278 157.151 45.4454 158.1 46.8161C159.575 46.078 164.318 43.8638 164.951 41.4386C165.372 39.9625 164.424 38.3809 162.948 38.0645Z" fill="white"/>
<path d="M195.095 175.137L162.421 168.811C160.735 168.495 159.575 166.808 159.891 165.121L164.107 143.611C164.424 141.924 166.11 140.764 167.796 141.08L200.47 147.407C202.157 147.723 203.316 149.41 203 151.097L198.784 172.607C198.468 174.399 196.781 175.454 195.095 175.137Z" fill="#E64646"/>
<path d="M186.768 151.308C185.187 150.992 183.606 151.624 182.552 152.679C182.025 151.202 180.761 150.148 179.18 149.832C176.755 149.304 174.331 150.992 173.91 153.417C173.172 157.213 178.336 163.539 180.023 165.648C182.236 164.277 189.614 160.376 190.352 156.58C190.774 154.155 189.193 151.73 186.768 151.308Z" fill="white"/>
</g>
<defs>
<clipPath id="clip0">
<rect width="203" height="281" fill="white"/>
</clipPath>
</defs>
</svg>
