<svg width="278" height="226" viewBox="0 0 278 226" fill="none" xmlns="http://www.w3.org/2000/svg">
<g clip-path="url(#clip0)">
<path d="M0 183.108C0 183.108 27.7246 74.33 153.532 74.33C243.323 74.33 278 183.108 278 183.108H0Z" fill="#9DC3EA"/>
<path d="M172.462 122.991C167.102 127.256 162.16 131.771 157.72 136.453C153.449 141.219 149.596 146.152 146.413 151.336C140.298 161.369 136.362 172.071 134.268 183.024H75.9705C75.803 181.268 75.803 179.512 76.138 177.757C76.3893 176.502 76.7244 175.332 77.1432 174.161L77.3107 173.743C83.4252 158.693 92.22 144.145 103.946 131.269C109.81 124.831 116.427 118.811 123.463 113.293C130.582 107.774 138.204 102.841 146.245 98.3263C161.908 89.6308 172.714 85.6175 190.136 80.8516C202.365 86.0355 211.913 91.1358 221.546 98.9952C217.106 100.333 209.149 103.176 205.799 104.095C205.799 104.095 183.351 114.296 172.462 122.991Z" fill="#C4DCF2"/>
<path d="M104.784 31.5213C111.652 32.1902 115.924 35.1165 117.18 42.3071C118.102 47.5745 122.039 49.0795 124.719 53.1765C127.483 57.357 124.384 59.5309 124.803 63.6278C124.97 65.6345 126.729 67.0559 127.902 68.7281C131.168 73.0758 131.001 79.5975 127.567 83.8616C125.054 86.9552 121.117 88.7111 117.18 88.7947C112.992 88.8783 109.726 86.0355 105.705 85.8683C101.266 85.7011 97.6644 89.1291 93.3088 89.4636C82.0012 90.3833 75.7192 74.6645 82.5038 66.805C83.8439 65.2164 85.6029 63.377 86.1055 61.2867C86.6918 58.6948 85.1841 56.8553 84.7653 54.347C83.7602 47.909 91.1311 44.9826 94.3977 40.8021C95.7379 39.1299 96.6592 37.1232 97.9994 35.451C99.2558 33.6952 102.69 31.3541 104.784 31.5213Z" fill="#C4DCF2"/>
<path d="M116.845 67.8084C116.51 67.4739 115.84 67.4739 115.505 67.8084L105.873 77.4236V65.5509L111.401 60.0326C111.736 59.6981 111.736 59.0292 111.401 58.6948C111.066 58.3603 110.396 58.3603 110.061 58.6948L105.957 62.7917V54.1798C105.957 53.6781 105.538 53.2601 105.035 53.2601C104.533 53.2601 104.114 53.6781 104.114 54.1798V70.4839L95.4866 61.872C95.1515 61.5376 94.4815 61.5376 94.1464 61.872C93.8114 62.2064 93.8114 62.8753 94.1464 63.2098L104.114 73.1595V101.002C104.114 101.504 104.533 101.922 105.035 101.922C105.538 101.922 105.957 101.504 105.957 101.002V80.0992L116.929 69.1461C117.18 68.7281 117.18 68.1428 116.845 67.8084Z" fill="#2D6087"/>
<path d="M219.284 83.8616C223.472 84.2797 226.152 86.1191 226.906 90.4669C227.493 93.7277 229.838 94.6474 231.513 97.1558C233.188 99.7477 231.346 101.085 231.597 103.594C231.681 104.848 232.769 105.684 233.523 106.687C235.534 109.363 235.366 113.376 233.356 115.968C231.848 117.891 229.419 118.978 226.99 118.978C224.393 119.062 222.383 117.306 219.954 117.222C217.19 117.139 215.012 119.229 212.332 119.396C205.38 119.982 201.527 110.283 205.631 105.433C206.469 104.43 207.558 103.343 207.893 102.005C208.228 100.417 207.306 99.246 207.055 97.741C206.385 93.8113 210.992 91.9719 213.002 89.38C213.84 88.3766 214.342 87.1225 215.18 86.0355C215.85 85.1158 217.944 83.6944 219.284 83.8616Z" fill="#749EC4"/>
<path d="M226.655 106.102C226.404 105.851 226.069 105.851 225.817 106.102L219.954 111.955V104.681L223.305 101.336C223.556 101.085 223.556 100.751 223.305 100.5C223.053 100.249 222.718 100.249 222.467 100.5L219.954 103.009V97.6574C219.954 97.323 219.703 97.0721 219.368 97.0721C219.033 97.0721 218.782 97.323 218.782 97.6574V107.691L213.505 102.423C213.253 102.172 212.918 102.172 212.667 102.423C212.416 102.674 212.416 103.009 212.667 103.259L218.782 109.363V126.503C218.782 126.838 219.033 127.088 219.368 127.088C219.703 127.088 219.954 126.838 219.954 126.503V113.711L226.655 107.022C226.906 106.687 226.906 106.353 226.655 106.102Z" fill="#2D6087"/>
<path d="M258.4 138.459C257.311 136.453 254.631 135.366 254.045 133.108C253.375 130.684 255.385 128.761 256.139 126.67C256.809 124.831 256.809 122.824 256.306 120.985C255.217 117.39 251.951 114.798 249.605 112.122C248.098 110.366 247.009 107.774 247.846 105.6C248.181 104.848 248.684 104.263 249.019 103.51C250.527 100.751 249.857 97.1558 247.763 94.8147C245.669 92.4735 242.402 91.3866 239.303 91.4702C236.204 91.3866 232.937 92.4735 230.843 94.8147C228.749 97.1558 228.079 100.835 229.587 103.51C230.005 104.179 230.508 104.848 230.759 105.6C231.681 107.774 230.592 110.283 229 112.122C226.655 114.798 223.388 117.39 222.299 120.985C221.713 122.824 221.797 124.831 222.467 126.67C223.221 128.761 225.147 130.684 224.561 133.108C223.975 135.366 221.294 136.453 220.205 138.459C218.865 140.968 219.2 144.229 220.624 146.57C222.299 149.413 225.399 151.252 228.581 152.172C231.764 153.091 236.036 153.175 239.303 153.342C242.653 153.259 246.841 153.091 250.024 152.172C253.207 151.252 256.222 149.413 257.981 146.57C259.405 144.229 259.74 140.968 258.4 138.459Z" fill="#C4DCF2"/>
<path d="M247.846 134.948C247.595 134.697 247.176 134.697 246.925 134.948L239.973 141.888V124.246L247.846 116.386C248.098 116.135 248.098 115.717 247.846 115.467C247.595 115.216 247.176 115.216 246.925 115.467L240.057 122.323V115.048C240.057 114.714 239.722 114.38 239.387 114.38C239.051 114.38 238.716 114.714 238.716 115.048V131.353L228.665 121.319C228.414 121.068 227.995 121.068 227.744 121.319C227.493 121.57 227.493 121.988 227.744 122.239L238.716 133.192V147.239L230.759 139.296C230.508 139.045 230.089 139.045 229.838 139.296C229.587 139.546 229.587 139.964 229.838 140.215L238.716 149.078V163.041C238.716 163.376 239.051 163.71 239.387 163.71C239.722 163.71 240.057 163.376 240.057 163.041V143.811L247.93 135.951C248.098 135.617 248.098 135.199 247.846 134.948Z" fill="#2D6087"/>
<path d="M56.9569 109.447H59.1347C61.48 109.447 63.4065 107.524 63.4065 105.182C63.4065 102.841 61.48 100.918 59.1347 100.918H56.9569C54.6117 100.918 52.6852 102.841 52.6852 105.182C52.6852 107.524 54.6117 109.447 56.9569 109.447Z" fill="#2F1B3F"/>
<path d="M58.0459 92.7244V220.147" stroke="#2F1B3F" stroke-width="1.3371" stroke-miterlimit="10"/>
<path d="M58.0459 107.022L95.4029 225.833" stroke="#2F1B3F" stroke-width="1.3371" stroke-miterlimit="10"/>
<path d="M58.2971 107.022L20.8563 225.833" stroke="#2F1B3F" stroke-width="1.3371" stroke-miterlimit="10"/>
<path d="M48.9998 105.182H58.0459L77.0594 108.861" stroke="#2F1B3F" stroke-width="0.9778" stroke-miterlimit="10"/>
<path d="M48.8322 109.196C48.0784 109.196 47.4921 108.61 47.4921 107.858V103.092C47.4921 102.34 48.0784 101.754 48.8322 101.754C49.5861 101.754 50.1724 102.34 50.1724 103.092V107.858C50.0886 108.61 49.5023 109.196 48.8322 109.196Z" fill="#2F1B3F"/>
<path d="M82.2526 111.37C82.1688 111.37 82.0851 111.37 82.0013 111.37L72.4527 109.53C71.6151 109.363 71.0287 108.527 71.1963 107.691C71.3638 106.855 72.1176 106.269 73.039 106.437L82.5039 108.276C83.3415 108.443 83.9278 109.279 83.7603 110.115C83.5928 110.868 83.0064 111.37 82.2526 111.37Z" fill="#2F1B3F"/>
<path d="M84.0115 92.8916H73.7927V78.2597H84.0952C88.1157 78.2597 91.4661 81.5205 91.4661 85.6175C91.3824 89.6308 88.1157 92.8916 84.0115 92.8916Z" fill="black"/>
<path d="M45.5656 98.3263H73.8765C75.3842 98.3263 76.6406 97.0722 76.6406 95.5672V77.0056C76.6406 75.5006 75.3842 74.2464 73.8765 74.2464H45.5656C44.0579 74.2464 42.8015 75.5006 42.8015 77.0056V95.6508C42.8015 97.1558 44.0579 98.3263 45.5656 98.3263Z" fill="black"/>
<path d="M50.2561 77.5072H59.721V68.9789C59.721 68.5609 59.386 68.2264 58.9672 68.2264H51.0937C50.6749 68.2264 50.3399 68.5609 50.3399 68.9789V77.5072H50.2561Z" fill="black"/>
<path d="M63.9091 78.6778H47.3246V90.5505H63.9091V78.6778Z" fill="#C4DCF2"/>
<path d="M76.7244 78.2597V93.5605" stroke="#595959" stroke-width="0.3363" stroke-miterlimit="10"/>
<path d="M59.721 73.9956H50.2561" stroke="#595959" stroke-width="0.3363" stroke-miterlimit="10"/>
<path d="M68.2646 74.33V98.3263" stroke="#595959" stroke-width="0.3363" stroke-miterlimit="10"/>
<path d="M60.2236 93.9785H63.1552C63.574 93.9785 63.9928 93.6441 63.9928 93.1424C63.9928 92.7244 63.6578 92.3063 63.1552 92.3063H60.2236C59.8048 92.3063 59.386 92.6408 59.386 93.1424C59.386 93.5605 59.8048 93.9785 60.2236 93.9785Z" fill="#595959"/>
<path d="M56.7894 70.0659H52.2664V72.1561H56.7894V70.0659Z" fill="#C4DCF2"/>
<path d="M76.5569 78.2597H77.562C81.5825 78.2597 84.9329 81.5205 84.9329 85.6175C84.9329 89.6308 81.6663 92.9752 77.562 92.9752H77.1432" stroke="#595959" stroke-width="0.3363" stroke-miterlimit="10"/>
<path d="M147.502 177.171L148.172 162.874L155.71 162.539L155.124 177.84H147.837L147.502 177.171Z" fill="#D18066"/>
<path d="M156.38 174.496C156.38 174.496 150.35 176.92 147.585 173.074L132.844 180.599L158.223 180.432L156.38 174.496Z" fill="#001335"/>
<path d="M132.844 182.606L158.223 182.522V180.349L132.844 180.516V182.606Z" fill="white"/>
<path d="M155.04 66.7214C155.04 66.7214 151.774 71.8217 149.512 79.9319C149.512 79.9319 141.22 108.945 143.649 167.556L157.972 168.058L167.269 77.1728V67.1395L155.04 66.7214Z" fill="#E64646"/>
<path d="M191.225 177.171L189.298 162.874L181.676 162.539L183.686 177.84H190.973L191.225 177.171Z" fill="#D18066"/>
<path d="M182.43 174.496C182.43 174.496 188.46 176.92 191.225 173.074L205.966 180.599L180.587 180.432L182.43 174.496Z" fill="#001335"/>
<path d="M205.966 182.606L180.587 182.522V180.349L205.966 180.516V182.606Z" fill="white"/>
<path d="M176.65 67.6411C176.65 67.6411 183.854 82.6911 184.775 98.6608L193.319 168.141H178.074L158.809 66.8886L176.65 67.6411Z" fill="#E64646"/>
<path d="M164.924 99.9149L162.662 87.2897L155.71 81.4369" stroke="#D73728" stroke-width="0.4889" stroke-miterlimit="10"/>
<path d="M148.423 39.6315C148.172 39.7151 140.885 49.6648 137.032 54.8487C135.775 56.6045 135.943 59.0292 137.534 60.5342C139.293 62.2064 142.057 62.1228 143.733 60.2834L156.548 46.8221L148.423 39.6315Z" fill="#D18066"/>
<path d="M154.873 29.0966C154.873 29.0966 151.02 28.2605 145.073 40.9693L154.538 50.2501L154.873 29.0966Z" fill="white"/>
<path d="M141.136 25.7521L145.073 55.3504L136.194 57.1898L136.529 28.1769L141.136 25.7521Z" fill="#D18066"/>
<path d="M126.729 21.8224C126.813 21.488 127.232 21.2371 127.651 21.4044L132.09 23.7455L128.404 18.1435C128.153 17.8091 128.321 17.3911 128.656 17.1402C128.907 16.973 129.326 17.0566 129.577 17.3074L133.598 22.0733L129.996 15.6352C129.828 15.3844 129.912 14.9663 130.163 14.7991C130.415 14.6319 130.833 14.7155 131.001 14.9663L135.021 20.5683L132.592 15.3008C132.425 14.9663 132.592 14.4647 133.095 14.2975C133.514 14.1302 133.933 14.4647 134.1 14.7155L137.953 21.906L137.534 19.3141C137.45 18.8124 137.869 18.3108 138.456 18.3108C138.791 18.3108 139.126 18.478 139.293 18.8124C141.639 24.2471 141.136 26.7555 141.136 26.7555L136.864 29.8491C133.011 28.4277 131.504 25.7521 131.504 25.7521L127.064 22.4077C126.813 22.4077 126.645 22.0733 126.729 21.8224Z" fill="#D18066"/>
<path d="M162.243 29.5982L155.794 29.013C154.705 28.9293 153.867 29.7655 153.867 30.8524L155.04 66.8886L176.65 67.7248L186.953 35.0329C187.288 34.0296 186.618 33.0263 185.613 32.7754L177.404 31.0196L169.698 31.6885L162.243 29.5982Z" fill="white"/>
<path d="M154.538 50.2501C154.538 50.2501 152.444 44.0629 154.538 37.7921" stroke="#D6D6D6" stroke-width="0.4618" stroke-miterlimit="10"/>
<path d="M171.122 77.9253L176.064 74.4972L175.394 73.4103C175.143 72.9923 175.226 72.4906 175.478 72.1561C175.813 71.8217 176.315 71.7381 176.734 71.9889L183.267 74.33L186.199 78.7614C183.686 81.6042 181.76 81.7714 180.671 81.5206C180.587 81.6042 180.419 81.6042 180.336 81.6878L176.064 83.5272C175.645 83.778 175.143 83.6108 174.891 83.2764C174.724 83.0255 174.556 82.5239 175.394 82.0222L174.64 82.5239C174.221 82.7747 173.719 82.6075 173.467 82.2731C173.216 81.9386 173.384 81.4369 173.886 81.0189L173.3 81.3533C172.881 81.6042 172.295 81.4369 172.043 81.0189C171.792 80.6008 171.96 80.0992 172.378 79.8483L173.216 79.2631L172.127 79.6811C171.625 79.9319 171.038 79.7647 170.787 79.1794C170.62 78.7614 170.787 78.1761 171.122 77.9253Z" fill="#D18066"/>
<path d="M186.283 78.7614L201.778 60.4506L193.737 57.1898L182.178 76.0859L186.283 78.7614Z" fill="#D18066"/>
<path d="M192.23 40.4676L201.778 56.0192C202.783 57.6915 202.532 59.8653 201.192 61.2867C199.433 63.1262 196.418 63.0426 194.826 61.1195L182.597 46.8221L192.23 40.4676Z" fill="#D18066"/>
<path d="M185.613 32.6918C185.613 32.6918 189.717 32.3574 194.91 43.8957L183.854 53.3437L179.498 51.5043L185.613 32.6918Z" fill="white"/>
<path d="M181.425 52.3404L177.99 50.919" stroke="#D6D6D6" stroke-width="0.4618" stroke-miterlimit="10"/>
<path d="M162.327 6.10359L158.893 18.896C158.139 21.8224 160.233 24.6652 163.249 24.8324L168.442 25.0832L170.62 4.18054L162.327 6.10359Z" fill="#071928"/>
<path d="M181.76 7.85942L184.356 17.4747C185.361 21.4044 182.43 25.2505 178.409 25.2505H170.117L173.3 6.27081L181.76 7.85942Z" fill="#071928"/>
<path d="M171.96 2.09027C171.625 1.33777 172.295 0.0836105 172.295 0.0836105C176.315 0.501665 179.582 2.17388 181.173 6.01998C183.519 11.7055 180.503 19.7321 173.384 21.5716C166.515 23.3274 172.295 2.84277 172.295 2.84277L171.96 2.09027Z" fill="#071928"/>
<path d="M166.013 22.0733L165.594 29.9327C165.51 32.3574 167.102 32.8591 169.531 32.9427C171.625 33.0263 173.467 33.2771 173.802 31.2705V18.9797L166.013 22.0733Z" fill="#D18066"/>
<path d="M165.678 27.926L174.64 20.8191L166.013 21.4044L165.678 27.926Z" fill="#AE563F"/>
<path d="M168.023 23.411C163.919 22.993 160.903 19.3977 161.071 16.0533L161.657 8.11025C161.992 3.92971 165.51 0.668889 169.782 0.836111C172.965 0.919722 178.158 6.27081 178.074 8.94636L177.488 15.3008C177.153 20.3174 172.965 23.6619 168.023 23.411Z" fill="#D18066"/>
<path d="M168.609 2.42471C168.609 2.42471 170.536 9.02997 177.153 10.535C176.566 10.3677 184.356 3.00999 172.211 0.0836105C172.211 0.0836105 171.29 0.334443 168.609 2.42471Z" fill="#071928"/>
<path d="M175.059 7.60858C175.226 12.5416 175.478 14.7991 175.478 14.7991L180.838 9.61524C180.838 9.61524 175.059 5.10026 175.059 7.60858Z" fill="#071928"/>
<path d="M178.242 17.9763C180 17.9763 181.425 16.5538 181.425 14.7991C181.425 13.0444 180 11.6219 178.242 11.6219C176.484 11.6219 175.059 13.0444 175.059 14.7991C175.059 16.5538 176.484 17.9763 178.242 17.9763Z" fill="#D18066"/>
<path d="M177.069 15.6352C177.069 15.6352 177.153 13.2941 179.331 13.7958" stroke="#1E1218" stroke-width="0.3041" stroke-miterlimit="10" stroke-linecap="round" stroke-linejoin="round"/>
<path d="M165.51 14.6319L165.259 15.7188L166.264 15.8024" stroke="#1E1218" stroke-width="0.3041" stroke-miterlimit="10" stroke-linecap="round" stroke-linejoin="round"/>
<path d="M165.008 17.3911C165.008 17.3911 166.934 18.5616 168.442 17.3911" stroke="#1E1218" stroke-width="0.3038" stroke-miterlimit="10" stroke-linecap="round" stroke-linejoin="round"/>
<path d="M164.505 12.6252L168.023 13.0433" stroke="#000100" stroke-width="0.3982" stroke-miterlimit="10"/>
<path d="M172.881 12.7925L175.394 13.0433" stroke="#000100" stroke-width="0.3982" stroke-miterlimit="10"/>
<path d="M170.201 16.5549C172.282 16.5549 173.97 14.8704 173.97 12.7925C173.97 10.7145 172.282 9.02997 170.201 9.02997C168.119 9.02997 166.432 10.7145 166.432 12.7925C166.432 14.8704 168.119 16.5549 170.201 16.5549Z" fill="#071928"/>
<path d="M161.992 15.468C163.935 15.468 165.51 13.8958 165.51 11.9563C165.51 10.0169 163.935 8.44469 161.992 8.44469C160.049 8.44469 158.474 10.0169 158.474 11.9563C158.474 13.8958 160.049 15.468 161.992 15.468Z" fill="#071928"/>
<path d="M161.908 14.7155C163.481 14.7155 164.756 13.4428 164.756 11.8727C164.756 10.3027 163.481 9.02997 161.908 9.02997C160.336 9.02997 159.061 10.3027 159.061 11.8727C159.061 13.4428 160.336 14.7155 161.908 14.7155Z" fill="#071928"/>
<path opacity="0.3" d="M162.411 7.94303L158.139 14.4647L159.647 15.6352L164.338 8.86275L162.411 7.94303Z" fill="white"/>
<path opacity="0.3" d="M164.589 9.44803L160.317 15.9697L160.652 16.8058L165.259 10.0333L164.589 9.44803Z" fill="white"/>
<path d="M170.201 15.8024C171.866 15.8024 173.216 14.4548 173.216 12.7925C173.216 11.1301 171.866 9.78246 170.201 9.78246C168.535 9.78246 167.185 11.1301 167.185 12.7925C167.185 14.4548 168.535 15.8024 170.201 15.8024Z" fill="#071928"/>
<path opacity="0.3" d="M170.703 8.69553L166.18 15.5516L167.772 16.8058L172.714 9.61525L170.703 8.69553Z" fill="white"/>
<path opacity="0.3" d="M172.965 10.2841L168.442 17.1402L168.861 17.9763L173.719 10.8694L172.965 10.2841Z" fill="white"/>
<path d="M162.411 5.35109C162.411 5.35109 170.871 7.27414 173.886 3.59527L172.295 0.083613C172.211 0.083613 164.421 -1.08694 162.411 5.35109Z" fill="#071928"/>
<path d="M162.243 29.5982L177.32 31.0196C177.32 31.0196 177.655 36.8724 168.526 36.5379C161.071 36.2035 162.243 29.5982 162.243 29.5982Z" fill="#D18066"/>
</g>
<defs>
<clipPath id="clip0">
<rect width="278" height="226" fill="white"/>
</clipPath>
</defs>
</svg>
