<svg width="248" height="222" viewBox="0 0 248 222" fill="none" xmlns="http://www.w3.org/2000/svg">
<path opacity="0.5" d="M198.5 222H35C7.50002 222 -16.6502 170.986 16 143C35 126.714 56 122.995 56 75.9999C56 15.4999 158.893 16.4626 170 61.9999C180 103 221.881 83.1342 236 143C248.5 196 218.5 222 198.5 222Z" fill="#C4DCF2"/>
<path opacity="0.5" d="M88.7123 221.821H199.01C217.562 221.821 236.449 199.18 214.423 180.321C201.606 169.346 184.909 175.188 175.923 144.821C168.673 120.321 139.923 112.821 122.423 131.321C102.879 151.982 61.948 139.979 52.423 180.321C43.9905 216.036 75.2202 221.821 88.7123 221.821Z" fill="#C4DCF2"/>
<path d="M150.432 207.343L147.047 187.443L155.752 185.016L159.298 206.21L150.916 208.151L150.432 207.343Z" fill="#F0B28D"/>
<path d="M159.299 203.136C159.299 203.136 152.206 206.048 148.982 201.518L131.734 210.416L161.555 210.255L159.299 203.136Z" fill="#001335"/>
<path d="M131.706 212.763L161.527 212.589L161.513 210.162L131.691 210.337L131.706 212.763Z" fill="white"/>
<path d="M147.692 104.285L148.659 151.041L161.877 194.723L144.468 195.37L128.348 142.952L126.091 101.211L147.692 104.285Z" fill="#FFFDFF"/>
<path d="M115.936 209.608L117.064 189.384L125.93 188.899L124.801 210.416H116.258L115.936 209.608Z" fill="#F0B28D"/>
<path d="M126.253 206.372C126.253 206.372 119.16 209.284 115.936 204.754L98.6881 213.652L128.51 213.49L126.253 206.372Z" fill="#001335"/>
<path d="M98.5084 216L128.33 215.825L128.316 213.398L98.4943 213.573L98.5084 216Z" fill="white"/>
<path d="M139.632 78.7224L117.225 81.1492C117.225 81.1492 113.518 92.7978 112.873 107.682C112.389 117.713 110.132 148.129 110.132 148.129L111.422 197.797L130.282 199.091L131.733 107.844L147.692 104.446C150.916 84.0613 139.632 78.7224 139.632 78.7224Z" fill="#FFFDFF"/>
<path d="M131.088 153.791L135.118 107.359L142.372 105.579" stroke="#607B96" stroke-width="0.5" stroke-miterlimit="10"/>
<path d="M124.963 26.6272L127.542 43.2912L138.826 41.5115L135.118 17.8907L124.963 26.6272Z" fill="#F0B28D"/>
<path d="M125.93 33.2604L130.927 26.3036L125.124 27.9215L125.93 33.2604Z" fill="#D68C64"/>
<path d="M125.769 2.19745C125.769 2.19745 120.127 2.19745 118.676 8.99247C118.676 8.99247 117.709 14.0079 116.258 21.1264C115.452 24.8475 118.354 28.5686 122.222 28.4068C124.64 28.245 127.219 27.7597 129.799 26.4654L133.506 24.0386C142.211 17.0818 137.697 2.68281 126.575 2.35924C126.413 2.19745 126.091 2.19745 125.769 2.19745Z" fill="#F0B28D"/>
<path d="M118.192 16.1111L115.291 18.0525C114.968 18.3761 114.968 18.8614 115.452 19.0232L117.87 19.6704L118.192 16.1111Z" fill="#F0B28D"/>
<path d="M120.772 11.2575C120.772 11.2575 118.999 10.6103 118.677 11.4193C118.677 11.4193 118.516 11.9046 120.128 12.39C121.74 12.8753 122.062 12.8753 122.384 12.39C122.707 11.9046 121.578 11.4193 120.772 11.2575Z" fill="#1B172C"/>
<path d="M119.498 16.5954C119.943 16.5865 120.296 16.2171 120.287 15.7704C120.278 15.3238 119.91 14.9689 119.465 14.9779C119.02 14.9868 118.667 15.3562 118.676 15.8028C118.685 16.2495 119.053 16.6044 119.498 16.5954Z" fill="#1B172C"/>
<path d="M116.58 20.4793L119.482 20.9647C119.482 20.9647 118.192 22.0972 116.419 21.6118L116.58 20.4793Z" fill="white"/>
<path d="M130.927 15.6257C130.927 15.6257 136.891 -0.552921 121.416 3.81531C121.416 3.81531 128.509 -4.43579 140.277 3.32995C142.695 4.94781 144.951 8.6689 144.951 11.5811C144.951 16.2729 143.501 14.0078 138.181 20.6411L132.539 19.9939C132.539 18.8614 130.927 15.6257 130.927 15.6257Z" fill="#071928"/>
<path d="M136.408 11.5811L133.667 19.8322C118.676 10.4485 124.801 1.87387 124.801 1.87387C124.801 1.87387 140.438 -0.0675634 136.408 11.5811Z" fill="#071928"/>
<path d="M127.381 3.16815C127.381 3.16815 120.933 3.16815 119.321 7.3746C119.321 7.3746 119.16 2.35922 125.285 1.22671C131.411 0.0942106 127.381 3.16815 127.381 3.16815Z" fill="#071928"/>
<path d="M144.79 10.125C144.79 10.125 146.563 16.7582 142.695 21.2882L136.408 25.98L132.539 19.9939L137.697 11.0957L144.79 10.125Z" fill="#071928"/>
<path d="M133.023 20.9647C135.07 20.9647 136.73 19.2987 136.73 17.2436C136.73 15.1885 135.07 13.5225 133.023 13.5225C130.975 13.5225 129.315 15.1885 129.315 17.2436C129.315 19.2987 130.975 20.9647 133.023 20.9647Z" fill="#F0B28D"/>
<path d="M131.411 17.8907C131.411 17.8907 131.572 15.1404 134.151 15.7875" stroke="#001438" stroke-width="0.3479" stroke-miterlimit="10" stroke-linecap="round" stroke-linejoin="round"/>
<path d="M151.238 20.8029C155.779 20.8029 159.459 17.1087 159.459 12.5518C159.459 7.99482 155.779 4.30067 151.238 4.30067C146.698 4.30067 143.017 7.99482 143.017 12.5518C143.017 17.1087 146.698 20.8029 151.238 20.8029Z" fill="#071928"/>
<path d="M126.897 42.9676L104.813 48.7919C101.75 49.6009 100.138 52.6748 101.105 55.7487C101.911 58.1755 104.49 59.6316 107.07 59.1462L125.446 55.7487L126.897 42.9676Z" fill="#E9A480"/>
<path d="M110.777 51.2187L111.1 25.9801L105.458 25.0093L100.944 53.4837L110.777 51.2187Z" fill="#E9A480"/>
<path d="M105.619 27.5979L103.201 21.2883C103.201 21.2883 108.198 20.6411 107.714 15.7875C107.553 14.3314 108.52 13.0372 109.971 13.0372H111.1C112.067 13.0372 113.034 13.6843 113.518 14.655C114.485 17.5672 115.774 23.3915 110.616 27.4361L105.619 27.5979Z" fill="#E9A480"/>
<path d="M133.345 36.1726C133.345 36.1726 123.028 36.6579 118.837 42.644C118.837 42.644 110.132 48.6301 116.419 60.9259L117.225 80.9874L145.919 82.1199L142.695 73.707L147.853 53.8073C150.593 44.909 143.823 35.6872 134.473 36.0108C134.151 36.1726 133.829 36.1726 133.345 36.1726Z" fill="#E64646"/>
<path d="M87.0809 14.655L81.6002 12.8753C79.6658 12.2282 78.5374 10.125 79.1822 8.18354L79.3434 7.69818C79.9882 5.75675 82.0838 4.62424 84.0181 5.27139L89.4989 7.05104C91.5945 7.69818 92.7229 9.8014 92.0781 11.7428L91.9169 12.2282C91.2721 14.3314 89.0153 15.3021 87.0809 14.655Z" fill="black"/>
<path d="M107.231 22.7443L94.6573 18.5379C93.3677 18.0525 92.7229 16.7582 93.0453 15.4639L95.6245 7.69818C96.1081 6.40389 97.3977 5.75675 98.6873 6.08032L111.261 10.2868C112.55 10.7721 113.195 12.0664 112.873 13.3607L110.294 21.1264C109.81 22.4207 108.52 23.2297 107.231 22.7443Z" fill="black"/>
<path d="M96.2693 16.4346L88.6929 14.0079C87.0809 13.5225 86.275 11.7428 86.7586 10.2868C87.2421 8.66891 89.0153 7.85997 90.4661 8.34533L97.8813 10.7721L96.2693 16.4346Z" fill="black"/>
<path d="M109.165 11.5811L104.329 9.96319L105.135 7.37461C105.296 7.05104 105.619 6.88925 105.941 6.88925L109.649 8.02176C109.971 8.18354 110.132 8.50712 110.132 8.83069L109.165 11.5811Z" fill="black"/>
<path d="M109.859 12.7893L102.357 10.308L100.591 15.6862L108.093 18.1675L109.859 12.7893Z" fill="#C4DCF2"/>
<path d="M94.8184 9.63962L93.0452 15.3021" stroke="#595959" stroke-width="0.154" stroke-miterlimit="10"/>
<path d="M104.974 8.18353L109.81 9.8014" stroke="#595959" stroke-width="0.154" stroke-miterlimit="10"/>
<path d="M100.622 6.88925L96.4305 19.185" stroke="#595959" stroke-width="0.154" stroke-miterlimit="10"/>
<path d="M91.5944 8.6689L90.6272 8.18354C89.0152 7.69818 87.4033 8.50712 86.9197 10.125C86.4361 11.7428 87.2421 13.3607 88.854 13.8461L90.3048 14.3314" stroke="#595959" stroke-width="0.154" stroke-miterlimit="10"/>
<path d="M89.1766 6.88925C87.4034 6.2421 85.3078 7.21282 84.663 9.15426L84.3406 10.125C83.857 11.9046 84.8242 14.0078 86.5974 14.4932" stroke="#595959" stroke-width="0.154" stroke-miterlimit="10"/>
<path d="M101.428 18.3761L99.9768 17.8907C99.8156 17.8907 99.6544 17.5671 99.6544 17.4054C99.6544 17.2436 99.9768 17.0818 100.138 17.0818L101.589 17.5671C101.75 17.5671 101.911 17.8907 101.911 18.0525C101.75 18.2143 101.589 18.3761 101.428 18.3761Z" fill="#595959"/>
<path d="M120.771 41.3497L97.0752 52.3512C93.8513 53.8073 92.5617 57.852 94.3349 60.9259C95.7856 63.5145 99.0096 64.647 101.75 63.6763L121.9 56.0723L120.771 41.3497Z" fill="#F0B28D"/>
<path d="M124.157 38.5994L109.649 45.5562L116.58 63.9998L132.217 54.6162C136.569 52.513 138.342 47.4976 136.569 43.1294C134.473 38.114 128.67 36.0108 124.157 38.5994Z" fill="#E64646"/>
<path d="M116.58 63.838L132.055 54.4544" stroke="#D73728" stroke-width="0.4889" stroke-miterlimit="10"/>
<path d="M104.168 53.9691L99.3321 25.4947H92.8841L93.5289 58.4991L104.168 53.9691Z" fill="#F0B28D"/>
<path d="M99.1709 27.9215L101.911 21.1265C101.911 21.1265 96.4305 19.3468 97.0753 14.4932C97.2365 12.8754 96.2693 11.4193 94.6573 11.2575L93.3678 11.0957C92.2394 10.9339 91.111 11.5811 90.6274 12.7136C89.3378 15.9493 87.7258 22.7443 93.529 27.5979L99.1709 27.9215Z" fill="#F0B28D"/>
<path d="M244.18 177.861C252.869 189.872 245.628 195.156 233.56 199H204.598C200.253 198.039 191.564 192.274 188.185 186.509C183.177 177.963 186.737 159.123 199.288 162.006C214.173 165.425 211.838 157.202 210.39 148.554C208.942 139.906 214.735 132.586 224.872 131.258C243.215 128.856 249.007 143.749 245.628 154.319C242.249 164.889 236.534 167.291 244.18 177.861Z" fill="#2D6087"/>
<path d="M221.5 201.5C221.5 196.046 220.5 182 220.5 182M225.5 144.5C226.809 146.137 230.5 153.5 230.5 153.5M220.5 182L205 180M220.5 182L229 170.5M229 170.5L230.5 164V153.5M229 170.5L221.5 157M230.5 153.5L236 143.5" stroke="#C4DCF2" stroke-width="1.3" stroke-linecap="round"/>
<path d="M205.103 216L196 196H240L232.92 216H205.103Z" fill="#001335"/>
<rect x="24" y="84.9356" width="53.8432" height="44.1338" transform="rotate(-15 24 84.9356)" fill="#9DC3EA"/>
<path d="M30.4863 88.6805L72.2637 77.4863L79.8027 105.622L38.0253 116.816L30.4863 88.6805Z" fill="#C4DCF2"/>
<rect x="13.0068" y="105" width="47.1692" height="38.6633" transform="rotate(15 13.0068 105)" fill="#9DC3EA"/>
<path d="M16.2875 110.682L52.8865 120.489L46.282 145.137L9.683 135.331L16.2875 110.682Z" fill="#C4DCF2"/>
<rect x="172.733" y="73.1924" width="41.2273" height="33.7929" transform="rotate(11.844 172.733 73.1924)" fill="#9DC3EA"/>
<path d="M175.869 77.9935L208.281 84.7907L203.704 106.619L171.292 99.822L175.869 77.9935Z" fill="#C4DCF2"/>
<circle cx="31.5" cy="42.5" r="16.5" fill="#E64646"/>
<circle cx="31.5" cy="42.5" r="13.7241" stroke="white"/>
<path d="M33.3847 46.3138H30.4066V48.7586H28.7085V46.3138H26.8683V44.9092H28.7085V43.6913H26.8683V42.2955H28.7085V35.8147H33.4825C34.8694 35.8147 35.9688 36.1673 36.7807 36.8726C37.5927 37.5779 37.9987 38.5321 37.9987 39.7352C37.9987 40.9976 37.6075 41.9725 36.8252 42.66C36.0488 43.3416 34.9435 43.6853 33.5092 43.6913H30.4066V44.9092H33.3847V46.3138ZM30.4066 42.2955H33.4825C34.4012 42.2955 35.1005 42.0792 35.5806 41.6465C36.0607 41.2139 36.3007 40.5827 36.3007 39.753C36.3007 39.0003 36.0518 38.3928 35.5539 37.9305C35.0561 37.4623 34.3834 37.2252 33.5359 37.2193H30.4066V42.2955Z" fill="white"/>
<circle cx="37" cy="154" r="13" fill="#E64646"/>
<circle cx="37" cy="154" r="10.7069" stroke="white"/>
<path d="M38.4849 157.005H36.1385V158.931H34.8007V157.005H33.3508V155.898H34.8007V154.939H33.3508V153.839H34.8007V148.733H38.562C39.6547 148.733 40.5209 149.011 41.1606 149.566C41.8003 150.122 42.1202 150.874 42.1202 151.822C42.1202 152.816 41.812 153.584 41.1956 154.126C40.5839 154.663 39.713 154.934 38.583 154.939H36.1385V155.898H38.4849V157.005ZM36.1385 153.839H38.562C39.2858 153.839 39.8368 153.668 40.215 153.328C40.5932 152.987 40.7824 152.489 40.7824 151.836C40.7824 151.243 40.5862 150.764 40.194 150.4C39.8018 150.031 39.2718 149.844 38.604 149.839H36.1385V153.839Z" fill="white"/>
</svg>
