<svg width="52" height="55" viewBox="0 0 52 55" fill="none" xmlns="http://www.w3.org/2000/svg">
<path fill-rule="evenodd" clip-rule="evenodd" d="M38.8423 38.4788C41.9806 35.2498 43.9131 30.8427 43.9131 25.9843C43.9131 16.0824 35.8861 8.05535 25.9842 8.05535C16.0823 8.05535 8.0553 16.0824 8.0553 25.9843C8.0553 31.2198 10.2995 35.9313 13.8783 39.2091L26.0013 51.3321L38.8485 38.485L38.8423 38.4788Z" fill="#E64646"/>
<path d="M28.6667 20.2353C28.6667 18.7726 27.4735 17.5882 26 17.5882C24.5265 17.5882 23.3333 18.7726 23.3333 20.2353C23.3333 21.698 24.5265 22.8824 26 22.8824C27.4735 22.8824 28.6667 21.698 28.6667 20.2353ZM30.2667 20.2353C30.2667 22.5751 28.3572 24.4706 26 24.4706C23.6428 24.4706 21.7333 22.5751 21.7333 20.2353C21.7333 17.8955 23.6428 16 26 16C28.3572 16 30.2667 17.8955 30.2667 20.2353ZM19.6 31.3529C19.6 32.1102 19.9815 32.4118 20.6667 32.4118H31.3333C32.0185 32.4118 32.4 32.1102 32.4 31.3529C32.4 28.8823 29.6623 27.6471 26 27.6471C22.3377 27.6471 19.6 28.8823 19.6 31.3529ZM18 31.3529C18 27.6631 21.5556 26.0588 26 26.0588C30.4444 26.0588 34 27.6631 34 31.3529C34 33.077 32.8323 34 31.3333 34H20.6667C19.1677 34 18 33.077 18 31.3529Z" fill="white"/>
</svg>
