<svg width="79" height="91" viewBox="0 0 79 91" fill="none" xmlns="http://www.w3.org/2000/svg">
<path d="M16.2329 81.2905H11.7578V86H10.3516V75.3359H16.958V76.4932H11.7578V80.1406H16.2329V81.2905ZM17.9102 81.9644C17.9102 81.188 18.0615 80.4897 18.3643 79.8696C18.6719 79.2495 19.0967 78.771 19.6387 78.4341C20.1855 78.0972 20.8081 77.9287 21.5063 77.9287C22.5854 77.9287 23.457 78.3022 24.1211 79.0493C24.79 79.7964 25.1245 80.79 25.1245 82.0303V82.1255C25.1245 82.897 24.9756 83.5903 24.6777 84.2056C24.3848 84.8159 23.9624 85.292 23.4106 85.6338C22.8638 85.9756 22.2339 86.1465 21.521 86.1465C20.4468 86.1465 19.5752 85.7729 18.9062 85.0259C18.2422 84.2788 17.9102 83.29 17.9102 82.0596V81.9644ZM19.2725 82.1255C19.2725 83.0044 19.4751 83.71 19.8804 84.2422C20.2905 84.7744 20.8374 85.0405 21.521 85.0405C22.2095 85.0405 22.7563 84.772 23.1616 84.2349C23.5669 83.6929 23.7695 82.936 23.7695 81.9644C23.7695 81.0952 23.562 80.3921 23.147 79.855C22.7368 79.313 22.1899 79.042 21.5063 79.042C20.8374 79.042 20.2979 79.3081 19.8877 79.8403C19.4775 80.3726 19.2725 81.1343 19.2725 82.1255ZM28.6621 76.1562V78.0752H30.1416V79.1226H28.6621V84.0371C28.6621 84.3545 28.728 84.5938 28.8599 84.7549C28.9917 84.9111 29.2163 84.9893 29.5337 84.9893C29.6899 84.9893 29.9048 84.96 30.1782 84.9014V86C29.8218 86.0977 29.4751 86.1465 29.1382 86.1465C28.5327 86.1465 28.0762 85.9634 27.7686 85.5972C27.4609 85.231 27.3071 84.7109 27.3071 84.0371V79.1226H25.8643V78.0752H27.3071V76.1562H28.6621ZM31.2256 81.9644C31.2256 81.188 31.377 80.4897 31.6797 79.8696C31.9873 79.2495 32.4121 78.771 32.9541 78.4341C33.501 78.0972 34.1235 77.9287 34.8218 77.9287C35.9009 77.9287 36.7725 78.3022 37.4365 79.0493C38.1055 79.7964 38.4399 80.79 38.4399 82.0303V82.1255C38.4399 82.897 38.291 83.5903 37.9932 84.2056C37.7002 84.8159 37.2778 85.292 36.7261 85.6338C36.1792 85.9756 35.5493 86.1465 34.8364 86.1465C33.7622 86.1465 32.8906 85.7729 32.2217 85.0259C31.5576 84.2788 31.2256 83.29 31.2256 82.0596V81.9644ZM32.5879 82.1255C32.5879 83.0044 32.7905 83.71 33.1958 84.2422C33.606 84.7744 34.1528 85.0405 34.8364 85.0405C35.5249 85.0405 36.0718 84.772 36.4771 84.2349C36.8823 83.6929 37.085 82.936 37.085 81.9644C37.085 81.0952 36.8774 80.3921 36.4624 79.855C36.0522 79.313 35.5054 79.042 34.8218 79.042C34.1528 79.042 33.6133 79.3081 33.2031 79.8403C32.793 80.3726 32.5879 81.1343 32.5879 82.1255ZM46.2329 81.2905H41.7578V86H40.3516V75.3359H46.958V76.4932H41.7578V80.1406H46.2329V81.2905ZM49.9023 86H48.5474V74.75H49.9023V86ZM51.7188 81.9644C51.7188 81.188 51.8701 80.4897 52.1729 79.8696C52.4805 79.2495 52.9053 78.771 53.4473 78.4341C53.9941 78.0972 54.6167 77.9287 55.3149 77.9287C56.394 77.9287 57.2656 78.3022 57.9297 79.0493C58.5986 79.7964 58.9331 80.79 58.9331 82.0303V82.1255C58.9331 82.897 58.7842 83.5903 58.4863 84.2056C58.1934 84.8159 57.771 85.292 57.2192 85.6338C56.6724 85.9756 56.0425 86.1465 55.3296 86.1465C54.2554 86.1465 53.3838 85.7729 52.7148 85.0259C52.0508 84.2788 51.7188 83.29 51.7188 82.0596V81.9644ZM53.0811 82.1255C53.0811 83.0044 53.2837 83.71 53.689 84.2422C54.0991 84.7744 54.646 85.0405 55.3296 85.0405C56.0181 85.0405 56.5649 84.772 56.9702 84.2349C57.3755 83.6929 57.5781 82.936 57.5781 81.9644C57.5781 81.0952 57.3706 80.3921 56.9556 79.855C56.5454 79.313 55.9985 79.042 55.3149 79.042C54.646 79.042 54.1064 79.3081 53.6963 79.8403C53.2861 80.3726 53.0811 81.1343 53.0811 82.1255ZM67.6489 84.1323L69.1724 78.0752H70.5273L68.2202 86H67.1216L65.1953 79.9941L63.3203 86H62.2217L59.9219 78.0752H61.2695L62.8296 84.0078L64.6753 78.0752H65.7666L67.6489 84.1323Z" fill="black"/>
<path d="M40 20H31.6904C27.2618 20 23.4913 23.2219 22.8006 27.5963L21.7895 34M61 20H54.2782C48.9187 20 44.3393 23.8626 43.4357 29.1454L42.6053 34M21.7895 34L18.5331 54.6239C18.2261 56.5681 16.5503 58 14.582 58H13C6.92487 58 2 53.0751 2 47V19C2 12.9249 6.92487 8 13 8H19.8593C21.1967 8 22.4456 7.3316 23.1875 6.2188L24.8125 3.7812C25.5544 2.6684 26.8033 2 28.1407 2H50.8593C52.1967 2 53.4456 2.6684 54.1875 3.7812L55.8125 6.2188C56.5544 7.3316 57.8033 8 59.1407 8H66C72.0751 8 77 12.9249 77 19V47C77 53.0751 72.0751 58 66 58H42.0567C40.1977 58 38.7862 56.3266 39.0997 54.4942L42.6053 34M21.7895 34H35M42.6053 34H56" stroke="#E64646" stroke-width="4" stroke-linecap="round"/>
</svg>
