<svg width="108" height="116" viewBox="0 0 108 116" fill="none" xmlns="http://www.w3.org/2000/svg">
<mask id="mask0" mask-type="alpha" maskUnits="userSpaceOnUse" x="0" y="0" width="108" height="116">
<rect width="108" height="116" fill="#C4C4C4"/>
</mask>
<g mask="url(#mask0)">
<path d="M64.4366 52.5886L76.7762 110.596" stroke="#E5E5E5" stroke-miterlimit="10"/>
<path d="M59.1993 53.1838L44.7965 110.596" stroke="#E5E5E5" stroke-miterlimit="10"/>
<path d="M70.2295 49.9303H52.5336V53.8583H70.2295V49.9303Z" fill="#19132D"/>
<path d="M48.9229 94.1305H73.0465" stroke="#E5E5E5" stroke-miterlimit="10"/>
<path d="M64.5953 113.85C64.5953 113.85 64.8334 116.508 61.1037 115.913C57.6518 115.358 55.1125 114.882 57.3344 106.986L64.5953 113.85Z" fill="white"/>
<path d="M64.3573 95.3605L62.2941 104.804L58.128 103.891L59.3977 94.6463L64.3573 95.3605Z" fill="#FFBBB6"/>
<path d="M62.2941 104.804C62.2941 104.804 64.5953 111.866 64.5557 113.85C64.516 115.834 57.4535 115.516 56.9377 112.184C56.4219 108.851 58.0883 103.891 58.0883 103.891L62.2941 104.804Z" fill="#001335"/>
<path d="M58.8025 48.0655L59.7944 70.6814L56.9377 99.4472L65.9444 101.748L70.8643 70.602C70.8643 70.602 72.5704 48.4622 68.6027 35.0911L58.8025 48.0655Z" fill="#E64646"/>
<path d="M42.1778 77.3868L39.4401 68.8562L43.8046 66.9517L46.7804 76.1171L42.4953 77.7439L42.1778 77.3868Z" fill="#FFBBB6"/>
<path d="M46.7804 73.8555C46.7804 73.8555 43.8046 76.5932 41.3049 74.9268L34.2424 82.5448L49.161 76.9503L46.7804 73.8555Z" fill="#001335"/>
<path d="M34.7186 83.8144L49.5974 78.22L49.161 76.9503L34.2424 82.5448L34.7186 83.8144Z" fill="white"/>
<path d="M55.3903 36.6385V38.781L34.3615 43.0662C32.2983 43.5026 30.8302 45.3277 30.9096 47.4703L38.5275 72.7049L46.8994 70.9194L42.3762 52.7077L59.5564 50.3271L68.563 35.0911L55.3903 36.6385Z" fill="#E64646"/>
<path d="M58.9215 50.3271L58.6835 46.4784L50.391 51.5174L58.9215 50.3271Z" fill="#C12D25"/>
<path d="M62.6115 5.17461C62.6115 5.17461 62.8892 9.10264 67.3727 10.9675C67.3727 10.9675 77.7284 14.4194 70.5072 23.6641C63.286 32.9088 62.6908 22.1564 62.6908 22.1564C62.6908 22.1564 48.8832 27.3937 46.9787 19.617C45.0742 11.8404 53.5651 14.9352 53.2477 7.83297C52.8509 0.730788 62.6115 5.17461 62.6115 5.17461Z" fill="#6999C4"/>
<path d="M47.7326 28.6634L46.8994 34.4166C46.7407 35.4482 47.4152 36.4401 48.4468 36.6782C49.4784 36.9162 50.51 36.3607 50.8671 35.3688L53.208 28.6634H47.7326V28.6634Z" fill="#FFBBB6"/>
<path d="M48.8436 22.3548C48.8436 22.3548 47.2962 25.9257 46.463 31.044L54.7951 32.7105L48.8436 22.3548Z" fill="#19132D"/>
<path d="M46.1058 42.59C46.1058 42.59 46.701 43.2249 47.5342 44.9707C48.1294 46.2403 48.2881 47.5497 48.3278 48.1845C48.3278 48.4226 48.3278 48.5416 48.1294 48.6606C47.812 48.859 47.4152 48.7003 47.2565 48.3829L46.6216 47.0339C46.6216 47.0339 45.9471 45.9229 45.471 46.0816C44.7171 46.3197 44.7171 51.438 44.7171 51.438C44.7171 51.438 43.3285 51.7157 43.2094 50.6841C43.1301 49.9303 43.1301 46.5974 43.5665 44.3358C43.7252 43.5423 43.8839 42.7884 44.5188 42.2726L44.9949 41.9155L46.1058 42.59Z" fill="#FFBBB6"/>
<path d="M44.122 42.6694L46.9391 34.4166L50.8671 35.3688L46.4233 44.3358L44.122 42.6694Z" fill="#FFBBB6"/>
<path d="M52.9303 18.9029C52.9303 18.9029 49.8355 19.9741 48.8436 22.3548L49.7561 24.656C49.7561 24.656 48.0104 30.0918 53.3667 32.155L55.3506 36.6385L69.5153 36.083C69.5153 36.083 73.0069 18.03 60.826 17.038L52.9303 18.9029Z" fill="#19132D"/>
<path d="M67.4124 26.8383V37.7098C67.4124 38.9397 68.4043 39.892 69.5947 39.892C70.7056 39.892 71.6182 39.0588 71.7769 37.9875L73.2846 26.4415L67.4124 26.8383Z" fill="#FFBBB6"/>
<path d="M60.8657 17.038C60.8657 17.038 72.4911 15.1732 75.6256 29.3379L64.4763 30.4092L60.8657 17.038Z" fill="#19132D"/>
<path d="M70.3485 39.773L54.9935 45.4071L54.2397 43.0265L69.5947 34.5356L70.3485 39.773Z" fill="#FFBBB6"/>
<path d="M55.0332 45.4071C55.0332 45.4071 53.4064 46.2006 51.1052 43.9787C51.1052 43.9787 49.3594 43.939 47.1771 44.3358C47.1771 44.3358 46.1059 43.4629 47.6929 41.9949C47.6929 41.9949 51.5813 38.8207 55.9061 43.2249L55.0332 45.4071Z" fill="#FFBBB6"/>
<path d="M51.3829 0.849819C51.3829 0.849819 58.9612 -1.80854 61.7386 2.27819C63.7622 5.25397 62.1354 11.0865 58.2074 13.0307C54.4777 14.8558 54.5968 2.27819 54.5968 2.27819L51.3829 0.849819Z" fill="#6999C4"/>
<path d="M50.1132 10.9675C51.1431 10.9675 51.9781 10.1326 51.9781 9.10264C51.9781 8.07273 51.1431 7.23782 50.1132 7.23782C49.0833 7.23782 48.2484 8.07273 48.2484 9.10264C48.2484 10.1326 49.0833 10.9675 50.1132 10.9675Z" fill="#FFA8A2"/>
<path d="M53.2477 13.9829L53.9619 18.4267C54.2 19.8551 54.9935 19.5377 56.3822 19.2996C57.5725 19.1012 59.0803 18.9822 59.0406 17.7522L57.3742 11.3245L53.2477 13.9829Z" fill="#FFBBB6"/>
<path d="M53.7239 16.919L58.0883 12.2371L53.1684 13.5465L53.7239 16.919Z" fill="#19132D"/>
<path d="M54.5571 14.5384C52.1368 14.7764 49.9942 13.0703 49.7165 11.0865L49.1213 6.44428C48.8039 3.9843 50.51 1.72271 52.9303 1.32594C55.43 0.929174 58.247 2.51625 58.6438 5.05558L59.0802 8.78522C59.3977 11.642 57.4138 14.0623 54.5571 14.5384Z" fill="#FFBBB6"/>
<path d="M55.7474 5.29365L58.0486 8.3091L60.9054 4.22237L55.7474 5.29365Z" fill="#6999C4"/>
<path d="M59.4373 10.2136C60.4672 10.2136 61.3021 9.37869 61.3021 8.34878C61.3021 7.31886 60.4672 6.48396 59.4373 6.48396C58.4074 6.48396 57.5725 7.31886 57.5725 8.34878C57.5725 9.37869 58.4074 10.2136 59.4373 10.2136Z" fill="#FFBBB6"/>
<path d="M58.8819 8.98361C58.8819 8.98361 58.6438 7.63459 59.9928 7.63459" stroke="#19132D" stroke-width="0.3633" stroke-miterlimit="10" stroke-linecap="round" stroke-linejoin="round"/>
<path d="M52.0177 9.3407L51.978 10.4517H52.5732" stroke="#19132D" stroke-width="0.3438" stroke-miterlimit="10" stroke-linecap="round" stroke-linejoin="round"/>
<path d="M54.5174 6.28557C54.5174 6.28557 53.5255 6.24589 53.5255 6.68234C53.5255 6.68234 53.5255 6.96008 54.3983 6.96008C55.2712 6.96008 55.4696 6.88072 55.549 6.60299C55.6283 6.32525 54.9935 6.24589 54.5174 6.28557Z" fill="#19132D"/>
<path d="M50.391 6.64266C50.391 6.64266 51.1846 6.52363 51.3036 6.88073C51.3036 6.88073 51.3433 7.15847 50.6688 7.23782C49.9546 7.35685 49.7165 7.2775 49.6371 7.03943C49.5181 6.84105 50.0339 6.68234 50.391 6.64266Z" fill="#19132D"/>
<path d="M50.7491 9.29934C50.9672 9.27851 51.1255 9.06709 51.1026 8.82714C51.0797 8.58718 50.8842 8.40954 50.6661 8.43037C50.448 8.4512 50.2897 8.66261 50.3126 8.90257C50.3355 9.14253 50.5309 9.32017 50.7491 9.29934Z" fill="#19132D"/>
<path d="M54.3628 8.98292C54.5809 8.96209 54.7392 8.75068 54.7163 8.51072C54.6934 8.27076 54.498 8.09313 54.2798 8.11396C54.0617 8.13479 53.9034 8.3462 53.9263 8.58616C53.9492 8.82612 54.1446 9.00376 54.3628 8.98292Z" fill="#19132D"/>
<path d="M51.502 11.4039L54.2793 11.0071C54.2793 11.0071 54.2 12.2371 53.0097 12.3165C51.7797 12.4355 51.502 11.4039 51.502 11.4039Z" fill="white"/>
<path d="M60.5483 17.1174L52.97 18.9029C52.97 18.9029 53.0494 20.8074 55.6681 20.8074C59.9929 20.8074 60.5483 17.1174 60.5483 17.1174Z" fill="#FFBBB6"/>
<path d="M58.5248 5.96815C58.5248 5.96815 54.3984 7.11879 51.3829 3.42883C51.3829 3.42883 50.1529 4.02398 49.161 6.44428C49.161 6.44428 47.6136 0.730789 53.5652 0.413373C53.5652 0.413373 58.6041 -0.538875 59.6358 2.31787C60.6674 5.17461 58.5248 5.96815 58.5248 5.96815Z" fill="#6999C4"/>
</g>
</svg>
