<svg width="108" height="116" viewBox="0 0 108 116" fill="none" xmlns="http://www.w3.org/2000/svg">
<mask id="mask0" mask-type="alpha" maskUnits="userSpaceOnUse" x="0" y="0" width="108" height="116">
<rect width="108" height="116" fill="#C4C4C4"/>
</mask>
<g mask="url(#mask0)">
<path d="M63.9443 35.479H65.4453C67.1283 35.479 68.4929 34.1145 68.4929 32.4315C68.4929 30.7485 67.1283 29.3839 65.4453 29.3839H63.9443C62.2613 29.3839 60.8967 30.7485 60.8967 32.4315C60.8967 34.1145 62.2613 35.479 63.9443 35.479Z" fill="#2F1B3F"/>
<path d="M64.6721 23.7437V105.482" stroke="#2F1B3F" stroke-width="1.3371" stroke-miterlimit="10"/>
<path d="M64.6721 33.7961L90.963 110.485" stroke="#2F1B3F" stroke-width="1.3371" stroke-miterlimit="10"/>
<path d="M64.854 33.7961L38.5632 110.485" stroke="#2F1B3F" stroke-width="1.3371" stroke-miterlimit="10"/>
<path d="M77.0898 23.7437H85.4137C86.3689 23.7437 87.1422 22.9704 87.1422 22.0152V18.3308C87.1422 17.3756 86.3689 16.6024 85.4137 16.6024H77.0898C76.1346 16.6024 75.3613 17.3756 75.3613 18.3308V22.0152C75.3613 22.9249 76.1346 23.7437 77.0898 23.7437Z" fill="black"/>
<path d="M58.5316 24.8808H72.4048C73.0416 24.8808 73.5419 24.3805 73.5419 23.7437V14.4645C73.5419 13.8277 73.0416 13.3274 72.4048 13.3274H58.5316C57.8948 13.3274 57.3944 13.8277 57.3944 14.4645V23.7437C57.3944 24.3805 57.8948 24.8808 58.5316 24.8808Z" fill="black"/>
<path d="M70.5398 22.6065H77.5446C79.0002 22.6065 80.1828 21.4239 80.1828 19.9683C80.1828 18.5128 79.0002 17.3301 77.5446 17.3301H70.5398V22.6065Z" fill="black"/>
<path d="M60.9423 14.9194H65.4454V12.2357C65.4454 12.0538 65.3089 11.9173 65.127 11.9173H61.2607C61.0787 11.9173 60.9423 12.0538 60.9423 12.2357V14.9194Z" fill="black"/>
<path d="M73.5873 17.3301V22.6065" stroke="#595959" stroke-width="0.2524" stroke-miterlimit="10"/>
<path d="M65.4454 13.2819H60.9423" stroke="#595959" stroke-width="0.2524" stroke-miterlimit="10"/>
<path d="M69.5391 13.4184V24.8808" stroke="#595959" stroke-width="0.2524" stroke-miterlimit="10"/>
<path d="M76.5439 17.3301H77.4991C78.9547 17.3301 80.1373 18.5128 80.1373 19.9683C80.1373 21.4239 78.9547 22.6065 77.4991 22.6065H76.1801" stroke="#595959" stroke-width="0.2524" stroke-miterlimit="10"/>
<path d="M79.1366 16.5569C80.8651 16.5569 82.2751 17.9669 82.2751 19.6954V20.5596C82.2751 22.2881 80.8651 23.6982 79.1366 23.6982" stroke="#595959" stroke-width="0.2524" stroke-miterlimit="10"/>
<path d="M65.7183 22.7885H67.1284C67.3558 22.7885 67.5378 22.6065 67.5378 22.3791C67.5378 22.1517 67.3558 21.9697 67.1284 21.9697H65.7183C65.4909 21.9697 65.309 22.1517 65.309 22.3791C65.309 22.6065 65.4909 22.7885 65.7183 22.7885Z" fill="#595959"/>
<path d="M19.641 105.937L22.9615 96.8851L29.375 97.3854L25.5996 108.029L20.5507 107.847L19.641 105.937Z" fill="#F8C8B8"/>
<path d="M19.3226 105.436C19.3226 105.436 23.6438 108.575 26.6458 105.982L34.6968 114.306L16.6389 109.849L19.3226 105.436Z" fill="#0B1B3A"/>
<path d="M34.6719 114.279L16.4987 109.897L16.1149 111.489L34.288 115.871L34.6719 114.279Z" fill="white"/>
<path d="M28.1923 55.3564L26.6913 78.3268L20.1413 98.9319L30.3301 102.798L38.6541 79.9188L39.9732 63.4984L28.1923 55.3564Z" fill="#4986CC"/>
<path d="M31.1945 103.617L18.7313 98.75L20.8237 93.5191L33.3323 98.7045L31.1945 103.617Z" fill="#9DC3EA"/>
<path d="M58.486 109.439L55.6658 101.024L61.3061 97.9313L64.6266 107.893L60.3054 110.531L58.486 109.439Z" fill="#F8C8B8"/>
<path d="M57.9402 109.212C57.9402 109.212 63.262 109.439 64.3537 105.618L75.6797 108.075L58.1676 114.306L57.9402 109.212Z" fill="#0B1B3A"/>
<path d="M75.6549 108.062L58.0893 114.461L58.6498 116L76.2154 109.601L75.6549 108.062Z" fill="white"/>
<path d="M41.1558 50.2165L41.5197 53.264L57.1214 76.5074L64.5811 101.252L53.8919 104.072L45.9773 81.7837L29.0111 59.6776C29.0111 59.6776 23.0069 51.8995 30.1937 45.0766L41.1558 50.2165Z" fill="#4986CC"/>
<path d="M39.2 72.914L28.1014 58.131" stroke="#776BAD" stroke-width="0.5" stroke-miterlimit="10"/>
<path d="M65.6728 100.842L53.2551 105.8L51.2083 100.524L63.8988 95.7934L65.6728 100.842Z" fill="#9DC3EA"/>
<path d="M55.3475 21.6513L47.8423 27.8374L45.0677 20.8326L52.8458 14.3281L55.3475 21.6513Z" fill="#F8C8B8"/>
<path d="M52.4818 24.0166C50.7988 21.2419 52.9367 19.0131 52.9367 19.0131L54.8471 22.2881L52.4818 24.0166Z" fill="#E7AA99"/>
<path d="M62.1704 9.37011C62.1704 9.37011 64.9451 11.0531 63.626 14.8284C63.626 14.8284 62.6253 17.5576 61.2152 21.4694C60.4419 23.5617 57.9402 24.4714 56.0753 23.2433C54.9381 22.4701 54.2559 21.1055 53.3916 19.6954L51.8451 17.7395C49.6618 11.6444 56.1663 5.95866 61.761 9.09719C61.8975 9.18817 62.034 9.27914 62.1704 9.37011Z" fill="#F8C8B8"/>
<path d="M61.761 18.5583L62.5797 20.3777C62.7162 20.6051 62.4433 20.8781 62.2159 20.8326L60.8058 20.4232L61.761 18.5583Z" fill="#F8C8B8"/>
<path d="M55.5749 14.4645C55.5749 14.4645 57.2124 7.55067 63.8534 11.8264C63.8534 11.8264 62.5343 5.45832 54.6197 5.59478C52.9368 5.64026 50.7534 6.8229 49.8437 8.27845C48.4337 10.5982 49.025 12.1448 49.7073 16.9663C49.7073 16.9663 52.3454 18.8767 54.2104 16.3295C54.6197 15.7381 55.5749 14.4645 55.5749 14.4645Z" fill="#E64646"/>
<path d="M54.8472 10.4618L55.5749 14.4645L58.3496 13.2364C58.9409 12.9635 59.2593 12.3722 59.1683 11.7354C59.0319 10.8711 59.1229 9.68851 60.26 9.55205C62.1704 9.32462 57.9402 7.50518 57.9402 7.50518L54.2559 7.09581L54.8472 10.4618Z" fill="#E64646"/>
<path d="M53.9829 16.7843C55.1636 16.7843 56.1207 15.8272 56.1207 14.6465C56.1207 13.4658 55.1636 12.5086 53.9829 12.5086C52.8022 12.5086 51.845 13.4658 51.845 14.6465C51.845 15.8272 52.8022 16.7843 53.9829 16.7843Z" fill="#F8C8B8"/>
<path d="M54.5742 15.6017C54.4832 15.5562 54.4377 15.4652 54.4832 15.3742C54.4832 15.3742 54.7561 14.7829 54.5742 14.3281C54.4832 14.0552 54.2103 13.8732 53.8464 13.7822C53.7555 13.7368 53.71 13.6458 53.7555 13.6003C53.8009 13.5093 53.8919 13.4638 53.9374 13.5093C54.3923 13.6458 54.7107 13.9187 54.8471 14.2371C55.12 14.8284 54.8016 15.5107 54.7561 15.5562C54.7561 15.6017 54.6652 15.6472 54.5742 15.6017Z" fill="black"/>
<path d="M61.4881 20.6051C54.1648 18.1944 58.0766 12.7361 58.0766 12.7361L57.1214 12.918L56.6211 13.5548C56.5756 13.8277 56.2117 12.918 56.1662 13.1454L56.0298 14.1916L55.7114 16.9208C55.4839 18.4218 52.8458 18.9676 52.8458 18.9676L52.8003 19.6044C52.5728 21.7423 53.9829 23.7437 56.0753 24.244C58.395 24.8353 60.7603 23.4708 61.3971 21.151L61.4881 20.6051Z" fill="#E64646"/>
<path d="M61.9884 15.3288C61.9884 15.3288 63.0346 15.5562 62.9436 16.0111C62.9436 16.0111 62.8527 16.3295 61.9429 16.102C61.0332 15.8746 60.8058 15.7381 60.8058 15.4197C60.8058 15.1013 61.4881 15.1923 61.9884 15.3288Z" fill="black"/>
<path d="M61.7155 17.6486C61.7155 17.6486 61.3516 17.0572 60.5784 17.2392" stroke="black" stroke-width="0.3747" stroke-miterlimit="10" stroke-linecap="round" stroke-linejoin="round"/>
<path d="M50.3441 8.00553C52.5547 8.00553 54.3468 6.21343 54.3468 4.00276C54.3468 1.7921 52.5547 0 50.3441 0C48.1334 0 46.3413 1.7921 46.3413 4.00276C46.3413 6.21343 48.1334 8.00553 50.3441 8.00553Z" fill="#E64646"/>
<path d="M45.7954 20.2412C45.7954 20.2412 38.0628 21.2874 34.4239 31.0669L26.0545 49.4432L42.7933 53.5825C42.7933 53.5825 47.6148 44.9401 50.0711 38.2992C52.3454 32.1586 50.4805 25.0628 50.4805 25.0628L45.7954 20.2412Z" fill="white"/>
<path d="M50.3895 28.3377C50.1166 25.745 47.7968 23.8801 45.2041 24.1076C42.5204 24.335 40.5645 26.7457 40.8829 29.4294L41.6562 36.2523L51.1173 34.6603L50.3895 28.3377Z" fill="white"/>
<path d="M41.6107 36.2523L40.6555 29.7933" stroke="#E8E8E8" stroke-width="0.5328" stroke-miterlimit="10"/>
<path d="M51.0717 34.6603L52.0724 41.3467C52.3908 43.5301 51.0717 45.6224 48.9339 46.3047C48.8884 46.3047 48.8884 46.3047 48.8429 46.3502C46.2957 47.1689 44.3853 47.9877 43.8395 45.3495L41.6107 36.2523L51.0717 34.6603Z" fill="#F8C8B8"/>
<path d="M48.4336 40.3005L60.2145 36.8891L62.7162 40.7099L50.0256 48.3061C47.3874 49.3977 44.3854 47.8057 43.7941 44.9856C43.2482 42.4839 45.9319 40.8009 48.4336 40.3005Z" fill="#F8C8B8"/>
<path d="M60.2145 36.8891C60.2145 36.8891 63.7624 31.8856 66.8554 33.2957C66.8554 33.2957 69.2207 32.3405 69.812 35.661C70.1759 37.6169 68.9933 38.9815 68.038 39.7547C67.4012 40.2551 66.628 40.528 65.8547 40.528L62.9436 40.619L58.3495 43.3936L57.8037 38.0263L60.2145 36.8891Z" fill="#F8C8B8"/>
</g>
</svg>
