<svg width="52" height="55" viewBox="0 0 52 55" fill="none" xmlns="http://www.w3.org/2000/svg">
<path fill-rule="evenodd" clip-rule="evenodd" d="M38.8423 38.4788C41.9806 35.2498 43.9131 30.8427 43.9131 25.9843C43.9131 16.0824 35.8861 8.05535 25.9842 8.05535C16.0823 8.05535 8.0553 16.0824 8.0553 25.9843C8.0553 31.2198 10.2995 35.9313 13.8783 39.2091L26.0013 51.3321L38.8484 38.485L38.8423 38.4788Z" fill="#E64646"/>
<path fill-rule="evenodd" clip-rule="evenodd" d="M30.4444 26.0667C30.4444 28.5704 28.4546 30.6 26 30.6C23.5454 30.6 21.5556 28.5704 21.5556 26.0667C21.5556 23.563 23.5454 21.5333 26 21.5333C28.4546 21.5333 30.4444 23.563 30.4444 26.0667ZM28.5556 26.0667C28.5556 27.5063 27.4114 28.6733 26 28.6733C24.5886 28.6733 23.4444 27.5063 23.4444 26.0667C23.4444 24.627 24.5886 23.46 26 23.46C27.4114 23.46 28.5556 24.627 28.5556 26.0667Z" fill="white"/>
<path fill-rule="evenodd" clip-rule="evenodd" d="M30.3096 17.9958L31.5556 19.2667H32.6667C34.5076 19.2667 36 20.7889 36 22.6667V30.6C36 32.4778 34.5076 34 32.6667 34H19.3333C17.4924 34 16 32.4778 16 30.6V22.6667C16 20.7889 17.4924 19.2667 19.3333 19.2667H20.4444L21.6904 17.9958C22.3155 17.3582 23.1633 17 24.0474 17H27.9526C28.8367 17 29.6845 17.3582 30.3096 17.9958ZM21.2268 21.1933L23.026 19.3582C23.2969 19.0819 23.6643 18.9267 24.0474 18.9267H27.9526C28.3357 18.9267 28.7031 19.0819 28.974 19.3582L30.7732 21.1933H32.6667C33.4644 21.1933 34.1111 21.853 34.1111 22.6667V30.6C34.1111 31.4137 33.4644 32.0733 32.6667 32.0733H19.3333C18.5356 32.0733 17.8889 31.4137 17.8889 30.6V22.6667C17.8889 21.853 18.5356 21.1933 19.3333 21.1933H21.2268Z" fill="white"/>
</svg>
